<?xml version="1.0" encoding="UTF-8"?>
<svg xmlns="http://www.w3.org/2000/svg" xmlns:xlink="http://www.w3.org/1999/xlink" width="50px" height="50px" viewBox="0 0 50 50" version="1.1">
<g id="surface1">
<path style=" stroke:none;fill-rule:nonzero;fill:rgb(0%,0%,0%);fill-opacity:1;" d="M 34.375 34.375 L 34.375 43.75 L 9.375 43.75 L 9.375 6.25 L 25 6.25 L 25 3.125 L 9.375 3.125 C 7.648438 3.125 6.25 4.523438 6.25 6.25 L 6.25 43.75 C 6.25 45.476562 7.648438 46.875 9.375 46.875 L 34.375 46.875 C 36.101562 46.875 37.5 45.476562 37.5 43.75 L 37.5 34.375 Z M 34.375 34.375 "/>
<path style=" stroke:none;fill-rule:nonzero;fill:rgb(0%,0%,0%);fill-opacity:1;" d="M 46.15625 9 L 41 3.84375 C 40.027344 2.890625 38.472656 2.890625 37.5 3.84375 L 15.625 25.71875 L 15.625 34.375 L 24.265625 34.375 L 46.140625 12.5 C 47.09375 11.527344 47.09375 9.972656 46.140625 9 Z M 22.96875 31.25 L 18.75 31.25 L 18.75 27.03125 L 33.5 12.265625 L 37.734375 16.5 Z M 39.9375 14.296875 L 35.703125 10.0625 L 39.25 6.515625 L 43.484375 10.75 Z M 39.9375 14.296875 "/>
</g>
</svg>
